solid inlet
 facet normal 0 0 1
  outer loop
   vertex -0.119426 0.0695669 0.122
   vertex -0.122752 0.0723574 0.122
   vertex -0.121211 0.0708167 0.122
  endloop
 endfacet
 facet normal 0 0 1
  outer loop
   vertex -0.124922 0.076117 0.122
   vertex -0.124002 0.0741423 0.122
   vertex -0.122752 0.0723574 0.122
  endloop
 endfacet
 facet normal 0 0 1
  outer loop
   vertex -0.124922 0.076117 0.122
   vertex -0.122752 0.0723574 0.122
   vertex -0.119426 0.0695669 0.122
  endloop
 endfacet
 facet normal 0 0 1
  outer loop
   vertex -0.115347 0.0680822 0.122
   vertex -0.119426 0.0695669 0.122
   vertex -0.117451 0.0686461 0.122
  endloop
 endfacet
 facet normal 0 0 1
  outer loop
   vertex -0.111006 0.0680822 0.122
   vertex -0.125486 0.0782217 0.122
   vertex -0.124922 0.076117 0.122
  endloop
 endfacet
 facet normal 0 0 1
  outer loop
   vertex -0.111006 0.0680822 0.122
   vertex -0.115347 0.0680822 0.122
   vertex -0.113176 0.0678923 0.122
  endloop
 endfacet
 facet normal 0 0 1
  outer loop
   vertex -0.111006 0.0680822 0.122
   vertex -0.119426 0.0695669 0.122
   vertex -0.115347 0.0680822 0.122
  endloop
 endfacet
 facet normal 0 0 1
  outer loop
   vertex -0.111006 0.0680822 0.122
   vertex -0.124922 0.076117 0.122
   vertex -0.119426 0.0695669 0.122
  endloop
 endfacet
 facet normal 0 0 1
  outer loop
   vertex -0.125486 0.0825629 0.122
   vertex -0.125676 0.0803923 0.122
   vertex -0.125486 0.0782217 0.122
  endloop
 endfacet
 facet normal 0 0 1
  outer loop
   vertex -0.106926 0.0695669 0.122
   vertex -0.111006 0.0680822 0.122
   vertex -0.108901 0.0686461 0.122
  endloop
 endfacet
 facet normal 0 0 1
  outer loop
   vertex -0.124002 0.0866423 0.122
   vertex -0.124922 0.0846675 0.122
   vertex -0.125486 0.0825629 0.122
  endloop
 endfacet
 facet normal 0 0 1
  outer loop
   vertex -0.105141 0.0708167 0.122
   vertex -0.111006 0.0680822 0.122
   vertex -0.106926 0.0695669 0.122
  endloop
 endfacet
 facet normal 0 0 1
  outer loop
   vertex -0.119426 0.0912176 0.122
   vertex -0.121211 0.0899678 0.122
   vertex -0.122752 0.0884271 0.122
  endloop
 endfacet
 facet normal 0 0 1
  outer loop
   vertex -0.100866 0.0782217 0.122
   vertex -0.105141 0.0708167 0.122
   vertex -0.103601 0.0723574 0.122
  endloop
 endfacet
 facet normal 0 0 1
  outer loop
   vertex -0.100866 0.0782217 0.122
   vertex -0.103601 0.0723574 0.122
   vertex -0.102351 0.0741423 0.122
  endloop
 endfacet
 facet normal 0 0 1
  outer loop
   vertex -0.100866 0.0782217 0.122
   vertex -0.102351 0.0741423 0.122
   vertex -0.10143 0.076117 0.122
  endloop
 endfacet
 facet normal 0 0 1
  outer loop
   vertex -0.100866 0.0825629 0.122
   vertex -0.100866 0.0782217 0.122
   vertex -0.100676 0.0803923 0.122
  endloop
 endfacet
 facet normal 0 0 1
  outer loop
   vertex -0.108901 0.0921384 0.122
   vertex -0.111006 0.0927023 0.122
   vertex -0.113176 0.0928923 0.122
  endloop
 endfacet
 facet normal 0 0 1
  outer loop
   vertex -0.108901 0.0921384 0.122
   vertex -0.113176 0.0928923 0.122
   vertex -0.115347 0.0927023 0.122
  endloop
 endfacet
 facet normal 0 0 1
  outer loop
   vertex -0.108901 0.0921384 0.122
   vertex -0.115347 0.0927023 0.122
   vertex -0.117451 0.0921384 0.122
  endloop
 endfacet
 facet normal 0 0 1
  outer loop
   vertex -0.108901 0.0921384 0.122
   vertex -0.117451 0.0921384 0.122
   vertex -0.119426 0.0912176 0.122
  endloop
 endfacet
 facet normal 0 0 1
  outer loop
   vertex -0.108901 0.0921384 0.122
   vertex -0.122752 0.0884271 0.122
   vertex -0.124002 0.0866423 0.122
  endloop
 endfacet
 facet normal 0 0 1
  outer loop
   vertex -0.108901 0.0921384 0.122
   vertex -0.125486 0.0825629 0.122
   vertex -0.125486 0.0782217 0.122
  endloop
 endfacet
 facet normal 0 0 1
  outer loop
   vertex -0.108901 0.0921384 0.122
   vertex -0.125486 0.0782217 0.122
   vertex -0.111006 0.0680822 0.122
  endloop
 endfacet
 facet normal 0 0 1
  outer loop
   vertex -0.108901 0.0921384 0.122
   vertex -0.124002 0.0866423 0.122
   vertex -0.125486 0.0825629 0.122
  endloop
 endfacet
 facet normal 0 0 1
  outer loop
   vertex -0.108901 0.0921384 0.122
   vertex -0.119426 0.0912176 0.122
   vertex -0.122752 0.0884271 0.122
  endloop
 endfacet
 facet normal 0 0 1
  outer loop
   vertex -0.106926 0.0912176 0.122
   vertex -0.111006 0.0680822 0.122
   vertex -0.105141 0.0708167 0.122
  endloop
 endfacet
 facet normal 0 0 1
  outer loop
   vertex -0.106926 0.0912176 0.122
   vertex -0.108901 0.0921384 0.122
   vertex -0.111006 0.0680822 0.122
  endloop
 endfacet
 facet normal 0 0 1
  outer loop
   vertex -0.106926 0.0912176 0.122
   vertex -0.100866 0.0782217 0.122
   vertex -0.100866 0.0825629 0.122
  endloop
 endfacet
 facet normal 0 0 1
  outer loop
   vertex -0.106926 0.0912176 0.122
   vertex -0.105141 0.0708167 0.122
   vertex -0.100866 0.0782217 0.122
  endloop
 endfacet
 facet normal 0 0 1
  outer loop
   vertex -0.103601 0.0884271 0.122
   vertex -0.10143 0.0846675 0.122
   vertex -0.102351 0.0866423 0.122
  endloop
 endfacet
 facet normal 0 0 1
  outer loop
   vertex -0.105141 0.0899678 0.122
   vertex -0.106926 0.0912176 0.122
   vertex -0.100866 0.0825629 0.122
  endloop
 endfacet
 facet normal 0 0 1
  outer loop
   vertex -0.105141 0.0899678 0.122
   vertex -0.100866 0.0825629 0.122
   vertex -0.10143 0.0846675 0.122
  endloop
 endfacet
 facet normal 0 0 1
  outer loop
   vertex -0.105141 0.0899678 0.122
   vertex -0.10143 0.0846675 0.122
   vertex -0.103601 0.0884271 0.122
  endloop
 endfacet
endsolid inlet
